{"title":"Clockwork Planet S01E07 (EngDub) 720p x264 Download","magnet":"magnet:?xt=urn:btih:71b1fb7849f767f71493341c0f2a4665b7bc1eac&dn=Clockwork+Planet+S01E07+%28EngDub%29+720p+x264+Download&tr=udp%3A%2F%2Ftracker.leechers-paradise.org%3A6969&tr=udp%3A%2F%2Fzer0day.ch%3A1337&tr=udp%3A%2F%2Fopen.demonii.com%3A1337&tr=udp%3A%2F%2Ftracker.coppersurfer.tk%3A6969&tr=udp%3A%2F%2Fexodus.desync.com%3A6969","uploader":"digimaza","categoryP":"video","categoryS":"tv_shows","size":"288717396","seeders":"2","leechers":"3","description":"Clockwork Planet S01E07 (EngDub) 720p x264 Download \r\n..::File Specs::.. \r\nGeneral \r\nFormat : Matroska \r\nFormat version : Version 4 / Version 2 \r\nFile size : 275 MiB \r\nDuration : 24 min 10 s \r\nOverall bit rate : 1 593 kb/s \r\n\r\nVideo \r\nID : 1 \r\nFormat : AVC \r\nFormat/Info : Advanced Video Codec \r\nFormat profile : <a class=\"__cf_email__\" href=\"/cdn-cgi/l/email-protection\" data-cfemail=\"0d45646a654d413e233c\">[email&#xA0;protected]</a><script data-cfhash=\"f9e31\" type=\"text/javascript\">/* <![CDATA[ */!function(t,e,r,n,c,a,p){try{t=document.currentScript||function(){for(t=document.getElementsByTagName('script'),e=t.length;e--;)if(t[e].getAttribute('data-cfhash'))return t[e]}();if(t&&(c=t.previousSibling)){p=t.parentNode;if(a=c.getAttribute('data-cfemail')){for(e='',r='0x'+a.substr(0,2)|0,n=2;a.length-n;n+=2)e+='%'+('0'+('0x'+a.substr(n,2)^r).toString(16)).slice(-2);p.replaceChild(document.createTextNode(decodeURIComponent(e)),c)}p.removeChild(t)}}catch(u){}}()/* ]]> */</script> \r\nFormat settings, CABAC : Yes \r\nFormat settings, ReFrames : 1 frame \r\nCodec ID : V_MPEG4/ISO/AVC \r\nDuration : 24 min 10 s \r\nBit rate : 1 398 kb/s \r\nWidth : 1 280 pixels \r\nHeight : 720 pixels \r\nDisplay aspect ratio : 16:9 \r\nFrame rate mode : Constant \r\nFrame rate : 23.976 (24000/1001) FPS \r\nColor space : YUV \r\nChroma subsampling : 4:2:0 \r\nBit depth : 8 bits \r\nScan type : Progressive \r\nBits/(Pixel*Frame) : 0.063 \r\nStream size : 242 MiB (88%) \r\nDefault : Yes \r\nForced : No \r\nColor range : Limited \r\n\r\nAudio \r\nID : 2 \r\nFormat : AAC \r\nFormat/Info : Advanced Audio Codec \r\nFormat profile : LC \r\nCodec ID : A_AAC \r\nDuration : 24 min 10 s \r\nBit rate : 192 kb/s \r\nChannel(s) : 2 channels \r\nChannel positions : Front: L R \r\nSampling rate : 44.1 kHz \r\nFrame rate : 43.066 FPS (1024 spf) \r\nCompression mode : Lossy \r\nStream size : 33.2 MiB (12%) \r\n\r\n..::ScreenShots::.. \r\n <a href=\"\nhttps://s15.postimg.org/dnfuopgln/vlcsnap-2017-06-22-22h50m12s342.png\" rel=\"nofollow\" target=\"_NEW\">\nhttps://s15.postimg.org/dnfuopgln/vlcsnap-2017-06-22-22h50m12s342.png</a>  <a href=\"\nhttps://s15.postimg.org/opkxn5aob/vlcsnap-2017-06-22-22h50m22s160.png\" rel=\"nofollow\" target=\"_NEW\">\nhttps://s15.postimg.org/opkxn5aob/vlcsnap-2017-06-22-22h50m22s160.png</a>  <a href=\"\nhttps://s15.postimg.org/bk5fh1gsr/vlcsnap-2017-06-22-22h50m27s391.png\" rel=\"nofollow\" target=\"_NEW\">\nhttps://s15.postimg.org/bk5fh1gsr/vlcsnap-2017-06-22-22h50m27s391.png</a> \r\n\r\n================================================================ \r\nSeed Seed Seed Seed Seed Seed Seed Seed Seed Seed Seed Seed Seed \r\nTo direct download or Watch Online this file, Visit. \r\r\nSeed Seed Seed Seed Seed Seed Seed Seed Seed Seed Seed Seed Seed \r\n================================================================","last_updated":"2017-06-23T12:04:07.004Z","parsed":{"xt":"urn:btih:71b1fb7849f767f71493341c0f2a4665b7bc1eac","dn":"Clockwork Planet S01E07 (EngDub) 720p x264 Download","tr":["udp://exodus.desync.com:6969","udp://open.demonii.com:1337","udp://tracker.coppersurfer.tk:6969","udp://tracker.leechers-paradise.org:6969","udp://zer0day.ch:1337"],"infoHash":"71b1fb7849f767f71493341c0f2a4665b7bc1eac","infoHashBuffer":{"type":"Buffer","data":[113,177,251,120,73,247,103,247,20,147,52,28,15,42,70,101,183,188,30,172]},"name":"Clockwork Planet S01E07 (EngDub) 720p x264 Download","announce":["udp://exodus.desync.com:6969","udp://open.demonii.com:1337","udp://tracker.coppersurfer.tk:6969","udp://tracker.leechers-paradise.org:6969","udp://zer0day.ch:1337"],"urlList":[]}}